<?xml version="1.0" encoding="UTF-8"?>
<svg width="65" height="65" viewBox="0 0 65 65" fill="none" xmlns="http://www.w3.org/2000/svg">
<g clip-path="url(#clip0_27_346)">
<path d="M58.3438 30.7158C56.6591 29.7076 55.2928 30.7158 54.7489 31.4056C49.0713 38.3301 35.2357 39.0199 29.5581 39.0199C29.2796 39.0199 29.001 39.0199 28.8683 39.0199V33.0638C28.8683 30.4107 25.9632 29.6281 24.4377 30.9944L7.41837 45.4933C6.11838 46.5944 6.11838 48.5841 7.40511 49.6984C12.6449 54.1954 24.4377 64.3566 24.4377 64.3566C25.6449 65.5637 28.8683 65.179 28.8683 62.2872V56.7556C28.8683 56.7556 28.8683 56.7556 28.8816 56.7423C34.5724 56.9015 50.9683 55.3362 59.4581 34.0587C60.0019 32.7985 59.4713 31.3923 58.3438 30.7158ZM29.4255 51.1974C27.7673 51.1974 26.653 51.0648 26.653 51.0648C24.9949 50.7331 23.4694 52.0066 23.4694 53.6913V56.3178L13.2286 47.6025L23.4694 38.8872V41.5138C23.4694 43.0393 24.5704 44.1403 25.9632 44.2862C26.0959 44.2862 27.3428 44.4188 29.5581 44.4188C34.6785 44.4188 42.5714 43.8617 49.0713 41.1025C42.5714 49.6852 34.3999 51.1974 29.4255 51.1974Z" fill="url(#paint0_linear_27_346)"/>
<path d="M10.2571 33.5811C15.9347 26.6566 29.7704 25.9668 35.4479 25.9668C35.7265 25.9668 36.005 25.9668 36.1377 25.9668V31.9229C36.1377 34.576 39.0428 35.3586 40.5683 33.9923L57.5877 19.5066C58.8876 18.4056 58.8876 16.4158 57.6009 15.3015C52.3611 10.7913 40.555 0.643401 40.555 0.643401C39.3479 -0.56374 36.1244 -0.179046 36.1244 2.71278V8.24441C36.1244 8.24441 36.1244 8.2444 36.1112 8.25767C30.4204 8.11175 14.0245 9.67706 5.54796 30.9546C4.99082 32.2015 5.5347 33.6076 6.64898 34.2709C8.33367 35.279 9.7 34.2709 10.2571 33.5811ZM35.5806 13.7893C37.2387 13.7893 38.353 13.9219 38.353 13.9219C40.0112 14.2536 41.5367 12.9801 41.5367 11.2954V8.66889L51.7775 17.3842L41.5367 26.0995V23.4729C41.5367 21.9474 40.4356 20.8464 39.0428 20.7005C38.9101 20.7005 37.6632 20.5679 35.4479 20.5679C30.3275 20.5679 22.4347 21.125 15.9347 23.8842C22.4347 15.3148 30.5928 13.7893 35.5806 13.7893Z" fill="url(#paint1_linear_27_346)"/>
</g>
<defs>
<linearGradient id="paint0_linear_27_346" x1="33.0574" y1="30.2898" x2="33.0574" y2="65" gradientUnits="userSpaceOnUse">
<stop stop-color="#6C28C2"/>
<stop offset="1" stop-color="#FF4BFF"/>
</linearGradient>
<linearGradient id="paint1_linear_27_346" x1="31.9457" y1="0" x2="31.9457" y2="34.6969" gradientUnits="userSpaceOnUse">
<stop stop-color="#6C28C2"/>
<stop offset="1" stop-color="#FF4BFF"/>
</linearGradient>
<clipPath id="clip0_27_346">
<rect width="65" height="65" fill="white"/>
</clipPath>
</defs>
</svg>
